<?xml version="1.0" encoding="utf-8"?>
<!-- Generator: Adobe Illustrator 24.1.1, SVG Export Plug-In . SVG Version: 6.00 Build 0)  -->
<svg version="1.1" id="Layer_1" xmlns="http://www.w3.org/2000/svg" xmlns:xlink="http://www.w3.org/1999/xlink" x="0px" y="0px"
	 viewBox="0 0 512 512" style="enable-background:new 0 0 512 512;" xml:space="preserve">
<g>
	<path d="M226.5,244.8l100,78.8l-66.3-163.4L226.5,244.8z M256,0C114.6,0,0,114.6,0,256s114.6,256,256,256s256-114.6,256-256
		S397.4,0,256,0z M379.7,369.2c-0.3,10.1-8.6,18-18.7,17.7c-5,0-8.8-1.9-14.2-6.3L214.8,274l-44.3,111h-38.3L244,116.1
		c2.7-6.8,9.1-11.1,16.3-10.8c6.9-0.3,13.4,4,15.8,10.8L378,361.3c0.9,2.4,1.7,5,1.7,7.4L379.7,369.2L379.7,369.2z"/>
</g>
</svg>
