<?xml version="1.0" encoding="utf-8"?>
<!-- Generator: Adobe Illustrator 24.1.1, SVG Export Plug-In . SVG Version: 6.00 Build 0)  -->
<svg version="1.1" id="Layer_1" xmlns="http://www.w3.org/2000/svg" xmlns:xlink="http://www.w3.org/1999/xlink" x="0px" y="0px"
	 viewBox="0 0 512 512" style="enable-background:new 0 0 512 512;" xml:space="preserve">
<g>
	<path d="M508.5,249.7L487,236.4c-0.1-2.1-0.3-4.2-0.6-6.2l18.5-17.2c4-3.8,2.6-10.5-2.5-12.4l-23.6-8.8c-0.6-2.1-1.2-4.1-1.8-6.2
		l14.7-20.4c3.3-4.5,0.7-10.7-4.8-11.7l-24.9-4.1c-0.9-1.9-1.9-3.7-2.9-5.6l10.4-22.9c1.1-2.3,0.8-5.1-0.6-7.2
		c-1.4-2.1-3.9-3.4-6.4-3.3l-25.3,0.9c-1.3-1.7-2.6-3.3-4-4.9L439,82c1.2-5.4-3.5-10.2-8.9-8.9l-24.6,5.8c-1.6-1.4-3.2-2.7-4.9-4
		l0.9-25.3c0.3-5.5-5.5-9.3-10.4-7L368.1,53c-1.9-1-3.7-2-5.7-2.9l-4.1-24.9c-0.9-5.4-7.2-8-11.6-4.8l-20.4,14.7
		c-2-0.7-4.1-1.2-6.1-1.8l-8.9-23.5c-1.9-5.2-8.6-6.5-12.3-2.5l-17.2,18.6c-2.1-0.3-4.2-0.5-6.3-0.7L262.3,3.6
		c-2.9-4.7-9.7-4.7-12.6,0l-13.3,21.4c-2.1,0.1-4.2,0.4-6.2,0.7L212.9,7.1c-3.8-4-10.4-2.7-12.4,2.5l-8.8,23.5
		c-2.1,0.6-4,1.2-6.2,1.8l-20.4-14.7c-4.5-3.2-10.7-0.6-11.7,4.8l-4.1,24.9c-1.9,0.9-3.7,1.9-5.6,2.9l-23-10.4
		c-5.1-2.3-10.7,1.5-10.4,7l0.8,25.3c-1.6,1.3-3.2,2.6-4.8,4L81.9,73c-5.3-1.2-10.1,3.5-8.9,8.9l5.7,24.6c-1.4,1.6-2.6,3.2-4,4.9
		l-25.2-0.9c-5.6-0.2-9.3,5.5-7,10.4l10.5,22.9c-1,1.9-2,3.7-3,5.6l-24.9,4.1c-5.4,0.9-8,7.2-4.8,11.7l14.8,20.4
		c-0.7,2.1-1.3,4.1-1.9,6.2l-23.6,8.8c-5.1,1.9-6.4,8.6-2.4,12.4l18.5,17.2c-0.3,2-0.4,4.1-0.6,6.2L3.5,249.7
		c-4.7,2.8-4.7,9.7,0,12.5l21.5,13.3c0.1,2.1,0.3,4.2,0.6,6.2L7.2,299.1c-4.1,3.7-2.7,10.4,2.4,12.3l23.6,8.9c0.6,2,1.2,4,1.9,6.1
		l-14.8,20.4c-3.2,4.5-0.6,10.8,4.9,11.6l24.9,4.1c0.9,1.9,1.9,3.7,3,5.6L42.6,391c-2.3,5.1,1.5,10.7,7,10.4l25.2-0.8
		c1.4,1.6,2.6,3.2,4.1,4.8L73.1,430c-1.2,5.3,3.5,10.1,8.9,8.9l24.6-5.7c1.6,1.4,3.2,2.6,4.9,4l-0.9,25.2c-0.3,5.6,5.5,9.3,10.4,7
		l23-10.4c1.9,1,3.7,2,5.6,3l4.2,24.9c0.8,5.4,7.1,7.9,11.5,4.8l20.5-14.8c2,0.7,4.1,1.2,6.1,1.8l8.9,23.6c1.9,5.2,8.5,6.5,12.3,2.5
		l17.2-18.5c2.1,0.3,4.1,0.5,6.2,0.7l13.3,21.5c2.9,4.7,9.7,4.7,12.6,0l13.3-21.5c2.1-0.1,4.1-0.4,6.2-0.7l17.2,18.5
		c3.8,4,10.4,2.7,12.3-2.5l8.9-23.6c2-0.6,4-1.2,6.1-1.8l20.4,14.8c4.5,3.3,10.8,0.6,11.6-4.8l4.1-24.9c1.9-1,3.8-2,5.7-3l22.9,10.4
		c5,2.3,10.6-1.5,10.4-7l-0.9-25.2c1.7-1.4,3.3-2.6,4.8-4l24.6,5.7c5.3,1.2,10.1-3.6,8.9-8.9l-5.8-24.6c1.4-1.6,2.7-3.2,4-4.8
		l25.3,0.8c5.5,0.3,9.3-5.4,7-10.4L459,368c1-1.9,2-3.7,2.9-5.6l24.9-4.1c5.4-0.9,8-7.2,4.8-11.6l-14.7-20.4l1.8-6.1l23.5-8.9
		c5.2-1.9,6.5-8.6,2.5-12.3l-18.5-17.3c0.2-2,0.4-4.1,0.6-6.2l21.5-13.3C513.2,259.4,513.2,252.5,508.5,249.7L508.5,249.7z
		 M364.6,427.9c-19.8-4.2-13.5-34,6.4-29.8c8.2,1.8,13.4,9.9,11.6,18.1C380.9,424.4,372.8,429.7,364.6,427.9z M357.4,378.5
		c-7.5-1.6-14.9,3.2-16.4,10.7l-7.7,35.5c-23.5,10.7-49.7,16.7-77.2,16.7c-27.3,0-54.2-5.9-78.8-17.4l-7.7-35.6
		c-1.6-7.5-8.9-12.3-16.5-10.6l-31.4,6.7c-5.9-6-11.3-12.4-16.3-19.2h153c1.7,0,2.9-0.2,2.9-1.9v-54.1c0-1.6-1.2-1.9-2.9-1.9h-44.8
		v-34.3H262c4.4,0,23.6,1.2,29.7,25.8c1.9,7.5,6.2,32.1,9,39.9c2.9,8.9,14.6,26.4,27.1,26.4H404l2.8-0.2c-5.2,7.2-11,14-17.3,20.3
		L357.4,378.5z M145.9,427.2c-8.2,1.7-16.3-3.5-18.1-11.7c-1.8-8.3,3.4-16.4,11.7-18.1c8.2-1.8,16.3,3.4,18.1,11.7
		C159.3,417.4,154,425.5,145.9,427.2z M87.8,191.9c3.7,7.8,0.3,17-7.5,20.6c-7.8,3.4-17-0.2-20.3-8.2
		C52.6,186.1,79.3,174.2,87.8,191.9L87.8,191.9z M70,234.2l32.7-14.5c7-3.1,10.1-11.3,7-18.3l-6.8-15.3h26.6v119.5H76.1
		C69.5,282.5,67.4,258.2,70,234.2L70,234.2z M213.7,222.6v-35.3h63.1c3.3,0,23,3.8,23,18.6c0,12.3-15.2,16.7-27.6,16.7L213.7,222.6z
		 M443.2,254.4c0,4.7-0.2,9.3-0.5,13.8h-19.2c-1.9,0-2.7,1.3-2.7,3.2v8.8c0,20.7-11.6,25.2-21.9,26.4c-9.8,1.1-20.6-4.1-21.9-10
		c-5.7-32.4-15.4-39.3-30.5-51.3c18.8-12,38.4-29.5,38.4-53.1c0-25.5-17.5-41.5-29.4-49.4c-16.7-11.1-35.2-13.2-40.2-13.2H116.7
		c27.4-30.7,64.2-51.5,104.6-59.2L244.8,95c5.2,5.5,14.1,5.7,19.6,0.4l26.2-25.1c54.1,10.1,100.9,43.5,128.1,91.2l-18,40.5
		c-3,7,0.1,15.2,7.1,18.3l34.5,15.3C442.8,241.9,443.1,248,443.2,254.4L443.2,254.4z M244.8,49.5c14.7-14,35.7,8,21,22
		C251.2,84.2,231.5,63.5,244.8,49.5z M422.7,192.7c3.4-7.7,12.3-11.1,20-7.8c12.5,5.5,12.1,23.3-0.6,28.2
		C429.3,218,417.1,205.1,422.7,192.7L422.7,192.7z"/>
</g>
</svg>
