<?xml version="1.0" encoding="utf-8"?>
<!-- Generator: Adobe Illustrator 24.1.1, SVG Export Plug-In . SVG Version: 6.00 Build 0)  -->
<svg version="1.1" id="Layer_1" xmlns="http://www.w3.org/2000/svg" xmlns:xlink="http://www.w3.org/1999/xlink" x="0px" y="0px"
	 viewBox="0 0 512 512" style="enable-background:new 0 0 512 512;" xml:space="preserve">
<style type="text/css">
	.st0{fill:#1159CC;}
	.st1{fill:#127EFF;}
</style>
<g>
	<polygon class="st0" points="503.6,39.4 390.3,104.2 387.1,144.3 301,338.7 249.8,372.5 256,512 352.5,456.4 503.6,86.3 	"/>
	<polygon class="st0" points="188.5,110.9 188.5,66.3 188,66.1 113,103.3 116.2,148.2 209.8,351.8 260.5,323.2 256,268.5 	"/>
	<polygon class="st1" points="436.1,0 323.6,65.9 323.5,65.9 323.5,65.9 323.5,110.9 256,268.5 256,321.1 211,347.2 120.9,144.5 
		120.9,104.8 188.5,65.9 75.9,0 8.4,39.4 8.4,87.7 160.4,456.8 256,512 256,373.4 301,347.2 300.4,346.9 391.1,144.5 391.1,104.9 
		391.1,104.8 503.6,39.4 	"/>
</g>
</svg>
